<svg width="40" height="39" viewBox="0 0 40 39" fill="none" xmlns="http://www.w3.org/2000/svg">
<path d="M38.7072 13.5217L26.7159 11.7698L21.3555 0.845125C21.2091 0.546014 20.9683 0.303876 20.6707 0.156695C19.9245 -0.213633 19.0177 0.0949735 18.6446 0.845125L13.2843 11.7698L1.29303 13.5217C0.962436 13.5692 0.660175 13.7259 0.428758 13.9633C0.148986 14.2524 -0.00518049 14.6413 0.000132928 15.0445C0.00544635 15.4478 0.169805 15.8325 0.457094 16.114L9.1329 24.6173L7.0832 36.6245C7.03514 36.9038 7.06588 37.1911 7.17195 37.4537C7.27802 37.7164 7.45518 37.9439 7.68332 38.1104C7.91147 38.277 8.18148 38.376 8.46273 38.3962C8.74399 38.4163 9.02524 38.3568 9.27459 38.2245L20.0001 32.5556L30.7256 38.2245C31.0184 38.3812 31.3585 38.4334 31.6843 38.3764C32.5061 38.234 33.0587 37.4506 32.917 36.6245L30.8673 24.6173L39.5431 16.114C39.7792 15.8814 39.9351 15.5775 39.9823 15.2452C40.1098 14.4143 39.5336 13.6452 38.7072 13.5217ZM27.2166 23.4209L28.9215 33.4055L20.0001 28.6957L11.0787 33.4102L12.7836 23.4256L5.56718 16.3514L15.5418 14.8938L20.0001 5.81132L24.4584 14.8938L34.433 16.3514L27.2166 23.4209Z" fill="#2196F3"/>
</svg>
