<svg width="25" height="24" viewBox="0 0 25 24" fill="none" xmlns="http://www.w3.org/2000/svg">
<path d="M24.192 8.45108L16.6975 7.35612L13.3472 0.528203C13.2557 0.341259 13.1052 0.189923 12.9192 0.0979342C12.4528 -0.133521 11.8861 0.0593584 11.6529 0.528203L8.30266 7.35612L0.808145 8.45108C0.601522 8.48076 0.41261 8.57868 0.267974 8.72705C0.0931164 8.90772 -0.00323781 9.15079 8.308e-05 9.40284C0.00340397 9.6549 0.106128 9.89531 0.285684 10.0713L5.70806 15.3858L4.427 22.8903C4.39696 23.0649 4.41618 23.2444 4.48247 23.4086C4.54877 23.5727 4.65949 23.7149 4.80208 23.819C4.94467 23.9231 5.11342 23.985 5.28921 23.9976C5.46499 24.0102 5.64077 23.973 5.79662 23.8903L12.5001 20.3473L19.2035 23.8903C19.3865 23.9882 19.599 24.0209 19.8027 23.9853C20.3163 23.8962 20.6617 23.4066 20.5731 22.8903L19.2921 15.3858L24.7144 10.0713C24.862 9.92587 24.9594 9.73595 24.9889 9.52824C25.0686 9.00895 24.7085 8.52823 24.192 8.45108V8.45108Z" fill="#F1E800"/>
</svg>
