<svg width="40" height="41" viewBox="0 0 40 41" fill="none" xmlns="http://www.w3.org/2000/svg">
<path d="M32.8572 15.7143C32.8572 12.3044 31.5026 9.03409 29.0914 6.62291C26.6802 4.21173 23.41 2.85714 20.0001 2.85714C16.5901 2.85714 13.3199 4.21173 10.9087 6.62291C8.4975 9.03409 7.14291 12.3044 7.14291 15.7143C7.14291 20.9886 11.3629 27.8629 20.0001 36.0971C28.6372 27.8629 32.8572 20.9886 32.8572 15.7143ZM20.0001 40C9.52291 30.4771 4.28577 22.38 4.28577 15.7143C4.28577 11.5466 5.94137 7.54961 8.88837 4.60261C11.8354 1.65561 15.8324 0 20.0001 0C24.1677 0 28.1647 1.65561 31.1117 4.60261C34.0587 7.54961 35.7143 11.5466 35.7143 15.7143C35.7143 22.38 30.4772 30.4771 20.0001 40Z" fill="#2196F3"/>
<path d="M20 18.1428C20.7578 18.1428 21.4845 17.8418 22.0203 17.306C22.5561 16.7702 22.8571 16.0435 22.8571 15.2857C22.8571 14.5279 22.5561 13.8012 22.0203 13.2654C21.4845 12.7296 20.7578 12.4286 20 12.4286C19.2422 12.4286 18.5155 12.7296 17.9797 13.2654C17.4439 13.8012 17.1429 14.5279 17.1429 15.2857C17.1429 16.0435 17.4439 16.7702 17.9797 17.306C18.5155 17.8418 19.2422 18.1428 20 18.1428ZM20 21C18.4845 21 17.031 20.3979 15.9594 19.3263C14.8878 18.2547 14.2857 16.8012 14.2857 15.2857C14.2857 13.7702 14.8878 12.3167 15.9594 11.2451C17.031 10.1735 18.4845 9.57141 20 9.57141C21.5155 9.57141 22.969 10.1735 24.0406 11.2451C25.1122 12.3167 25.7143 13.7702 25.7143 15.2857C25.7143 16.8012 25.1122 18.2547 24.0406 19.3263C22.969 20.3979 21.5155 21 20 21ZM35.4286 29.5714L40 41H27.1429V38.1428H12.8571V41H0L4.57143 29.5714H35.4286ZM32.3514 29.5714H7.64857L4.22 38.1428H35.78L32.3514 29.5714Z" fill="#2196F3"/>
</svg>
