<svg width="40" height="43" viewBox="0 0 40 43" fill="none" xmlns="http://www.w3.org/2000/svg">
<path d="M39.4718 26.4961L36.3829 23.8552C36.5291 22.9592 36.6046 22.0443 36.6046 21.1294C36.6046 20.2146 36.5291 19.2997 36.3829 18.4037L39.4718 15.7628C39.7048 15.5633 39.8716 15.2977 39.9499 15.0012C40.0282 14.7046 40.0145 14.3913 39.9104 14.1028L39.868 13.9802C39.0176 11.6035 37.7442 9.4003 36.1094 7.47701L36.0245 7.37797C35.8262 7.14478 35.5619 6.97715 35.2664 6.89718C34.9709 6.8172 34.6581 6.82864 34.3692 6.92997L30.5352 8.29285C29.1205 7.13275 27.5407 6.21787 25.8335 5.57651L25.0931 1.56803C25.0373 1.26641 24.891 0.988929 24.6736 0.772449C24.4563 0.555968 24.1783 0.410737 23.8764 0.356048L23.7491 0.332469C21.2922 -0.110823 18.7079 -0.110823 16.2509 0.332469L16.1236 0.356048C15.8217 0.410737 15.5437 0.555968 15.3264 0.772449C15.109 0.988929 14.9627 1.26641 14.9069 1.56803L14.1618 5.59538C12.4682 6.23687 10.8911 7.15126 9.49305 8.30228L5.63075 6.92997C5.34198 6.82783 5.02897 6.81599 4.7333 6.89601C4.43764 6.97603 4.17332 7.14413 3.97549 7.37797L3.8906 7.47701C2.25771 9.40166 0.984569 11.6045 0.132054 13.9802L0.089611 14.1028C-0.122603 14.6923 0.0518841 15.3525 0.528187 15.7628L3.65481 18.432C3.50861 19.3185 3.43788 20.224 3.43788 21.1247C3.43788 22.0302 3.50861 22.9356 3.65481 23.8175L0.528187 26.4867C0.295203 26.6861 0.128453 26.9518 0.0501108 27.2483C-0.0282314 27.5448 -0.0144541 27.8582 0.089611 28.1467L0.132054 28.2693C0.985626 30.6461 2.24948 32.8389 3.8906 34.7724L3.97549 34.8715C4.17381 35.1047 4.43813 35.2723 4.73362 35.3523C5.02911 35.4322 5.34189 35.4208 5.63075 35.3195L9.49305 33.9472C10.8984 35.1026 12.4688 36.0174 14.1618 36.6541L14.9069 40.6814C14.9627 40.983 15.109 41.2605 15.3264 41.477C15.5437 41.6935 15.8217 41.8387 16.1236 41.8934L16.2509 41.917C18.7304 42.3626 21.2696 42.3626 23.7491 41.917L23.8764 41.8934C24.1783 41.8387 24.4563 41.6935 24.6736 41.477C24.891 41.2605 25.0373 40.983 25.0931 40.6814L25.8335 36.6729C27.54 36.0333 29.1287 35.1154 30.5352 33.9566L34.3692 35.3195C34.658 35.4216 34.971 35.4335 35.2667 35.3534C35.5624 35.2734 35.8267 35.1053 36.0245 34.8715L36.1094 34.7724C37.7505 32.8342 39.0144 30.6461 39.868 28.2693L39.9104 28.1467C40.1226 27.5666 39.9481 26.9064 39.4718 26.4961ZM33.0347 18.9601C33.1526 19.6722 33.2139 20.4032 33.2139 21.1342C33.2139 21.8651 33.1526 22.5961 33.0347 23.3082L32.7234 25.1992L36.2462 28.2127C35.7121 29.443 35.038 30.6076 34.2372 31.6836L29.8609 30.132L28.3801 31.3487C27.253 32.273 25.9986 32.9993 24.6404 33.5086L22.8437 34.183L21.9995 38.7574C20.6676 38.9083 19.3229 38.9083 17.991 38.7574L17.1469 34.1735L15.3643 33.4897C14.0203 32.9804 12.7706 32.2542 11.6529 31.3346L10.1721 30.1132L5.76752 31.6788C4.96582 30.5989 4.29616 29.4341 3.75856 28.208L7.31904 25.1662L7.0125 23.2799C6.89932 22.5772 6.83802 21.851 6.83802 21.1342C6.83802 20.4126 6.89461 19.6911 7.0125 18.9884L7.31904 17.1021L3.75856 14.0604C4.29145 12.8295 4.96582 11.6694 5.76752 10.5895L10.1721 12.1551L11.6529 10.9337C12.7706 10.0141 14.0203 9.2879 15.3643 8.77859L17.1516 8.10422L17.9958 3.52039C19.3209 3.36949 20.6744 3.36949 22.0042 3.52039L22.8484 8.09478L24.6451 8.76915C25.9986 9.27847 27.2577 10.0047 28.3848 10.929L29.8656 12.1457L34.2419 10.5942C35.0436 11.6741 35.7133 12.8389 36.2509 14.0651L32.7281 17.0785L33.0347 18.9601ZM20.0047 12.3626C15.4209 12.3626 11.7048 16.0787 11.7048 20.6626C11.7048 25.2464 15.4209 28.9625 20.0047 28.9625C24.5885 28.9625 28.3046 25.2464 28.3046 20.6626C28.3046 16.0787 24.5885 12.3626 20.0047 12.3626ZM23.7397 24.3975C23.2498 24.8888 22.6676 25.2784 22.0266 25.5439C21.3857 25.8093 20.6985 25.9454 20.0047 25.9443C18.5947 25.9443 17.2695 25.3926 16.2698 24.3975C15.7785 23.9077 15.3889 23.3255 15.1234 22.6845C14.858 22.0435 14.7219 21.3564 14.7229 20.6626C14.7229 19.2525 15.2747 17.9274 16.2698 16.9276C17.2695 15.9278 18.5947 15.3808 20.0047 15.3808C21.4148 15.3808 22.7399 15.9278 23.7397 16.9276C24.231 17.4175 24.6205 17.9997 24.886 18.6406C25.1515 19.2816 25.2876 19.9688 25.2865 20.6626C25.2865 22.0726 24.7347 23.3978 23.7397 24.3975Z" fill="#2196F3"/>
</svg>
