<svg width="40" height="38" viewBox="0 0 40 38" fill="none" xmlns="http://www.w3.org/2000/svg">
<path d="M39.1705 18.5671L22.1223 1.54497L20.9796 0.403406C20.7192 0.145018 20.3671 0 20.0001 0C19.6331 0 19.281 0.145018 19.0206 0.403406L0.829651 18.5671C0.562858 18.8326 0.352008 19.1488 0.209545 19.497C0.0670819 19.8452 -0.00410599 20.2184 0.000182879 20.5946C0.0178311 22.1461 1.31057 23.3846 2.86361 23.3846H4.73874V37.7401H35.2614V23.3846H37.1763C37.9307 23.3846 38.6411 23.0893 39.1749 22.556C39.4378 22.2942 39.6461 21.9829 39.7877 21.6402C39.9293 21.2975 40.0015 20.9301 40 20.5593C40 19.81 39.7044 19.1004 39.1705 18.5671V18.5671ZM22.4708 34.5666H17.5293V25.5752H22.4708V34.5666ZM32.0847 20.2111V34.5666H25.2946V24.5173C25.2946 23.5433 24.5048 22.7543 23.5297 22.7543H16.4704C15.4954 22.7543 14.7056 23.5433 14.7056 24.5173V34.5666H7.91543V20.2111H3.67985L20.0045 3.91626L21.0237 4.93441L36.3247 20.2111H32.0847Z" fill="#2196F3"/>
</svg>
